<svg width="35" height="35" viewBox="0 0 35 35" fill="none" xmlns="http://www.w3.org/2000/svg">
<path d="M12.25 24.7916L17.5 19.5416L22.75 24.7916L24.7917 22.75L19.5417 17.5L24.7917 12.25L22.75 10.2083L17.5 15.4583L12.25 10.2083L10.2084 12.25L15.4584 17.5L10.2084 22.75L12.25 24.7916ZM17.5 32.0833C15.4827 32.0833 13.5868 31.7002 11.8125 30.9341C10.0382 30.168 8.49481 29.1292 7.18231 27.8177C5.86981 26.5061 4.83099 24.9627 4.06586 23.1875C3.30072 21.4122 2.91766 19.5163 2.91669 17.5C2.91572 15.4836 3.29877 13.5877 4.06586 11.8125C4.83294 10.0372 5.87176 8.49378 7.18231 7.18225C8.49287 5.87072 10.0363 4.8319 11.8125 4.06579C13.5888 3.29968 15.4846 2.91663 17.5 2.91663C19.5154 2.91663 21.4113 3.29968 23.1875 4.06579C24.9638 4.8319 26.5072 5.87072 27.8177 7.18225C29.1283 8.49378 30.1676 10.0372 30.9356 11.8125C31.7037 13.5877 32.0863 15.4836 32.0834 17.5C32.0804 19.5163 31.6974 21.4122 30.9342 23.1875C30.171 24.9627 29.1322 26.5061 27.8177 27.8177C26.5033 29.1292 24.9599 30.1685 23.1875 30.9356C21.4152 31.7027 19.5193 32.0852 17.5 32.0833Z" fill="white"/>
</svg>
