<?xml version="1.0" encoding="iso-8859-1"?>
<!-- Uploaded to: SVG Repo, www.svgrepo.com, Generator: SVG Repo Mixer Tools -->
<svg fill="#000000" height="800px" width="800px" version="1.1" id="Layer_1" xmlns="http://www.w3.org/2000/svg" xmlns:xlink="http://www.w3.org/1999/xlink" 
	 viewBox="0 0 512 512" xml:space="preserve">
<g>
	<g>
		<path d="M426.667,68.267H85.333c-9.387,0-17.067,7.68-17.067,17.067V102.4c0,9.387,7.68,17.067,17.067,17.067h341.333
			c9.387,0,17.067-7.68,17.067-17.067V85.333C443.733,75.947,436.053,68.267,426.667,68.267z"/>
	</g>
</g>
<g>
	<g>
		<path d="M357.547,6.827C354.133,2.56,349.013,0,343.893,0H168.96c-5.12,0-10.24,2.56-13.653,6.827L111.787,51.2h289.28
			L357.547,6.827z"/>
	</g>
</g>
<g>
	<g>
		<path d="M417.28,192.853c-1.707-0.853-3.413-1.707-5.12-2.56l5.973-53.76H93.867l5.973,53.76
			c-1.707,0.853-3.413,1.707-4.267,3.413c-3.413,3.413-5.12,8.533-4.267,13.653l19.627,220.16c0.853,7.68,5.973,12.8,12.8,15.36
			l5.12,53.76c0.853,8.533,8.533,15.36,17.067,15.36h220.16c9.387,0,16.213-6.827,17.067-15.36l5.12-53.76
			c6.827-1.707,11.947-7.68,12.8-15.36l20.48-221.013C422.4,201.387,420.693,197.12,417.28,192.853z M366.08,494.933H145.92
			l-5.12-51.2h21.333h51.2H256h42.667h51.2H371.2L366.08,494.933z M137.387,204.8h17.067l16.213,221.867H153.6L137.387,204.8z
			 M196.267,204.8h17.067l8.533,221.867H204.8L196.267,204.8z M247.467,426.667V204.8h17.067v221.867H247.467z M290.133,426.667
			l8.533-221.867h17.067L307.2,426.667H290.133z M359.253,426.667h-17.067L358.4,204.8h17.067L359.253,426.667z M395.093,187.733
			H256H116.907l-5.12-34.133H399.36L395.093,187.733z"/>
	</g>
</g>
</svg>