<svg width="100" height="100" viewBox="0 0 100 100" fill="none" xmlns="http://www.w3.org/2000/svg">
<path d="M87.5 12.5H12.5C11.3949 12.5 10.3351 12.939 9.5537 13.7204C8.7723 14.5018 8.33331 15.5616 8.33331 16.6667V83.3333C8.33331 84.4384 8.7723 85.4982 9.5537 86.2796C10.3351 87.061 11.3949 87.5 12.5 87.5H87.5C88.6051 87.5 89.6649 87.061 90.4463 86.2796C91.2277 85.4982 91.6667 84.4384 91.6667 83.3333V16.6667C91.6667 15.5616 91.2277 14.5018 90.4463 13.7204C89.6649 12.939 88.6051 12.5 87.5 12.5ZM50 66.6667C46.6848 66.6667 43.5054 65.3497 41.1611 63.0055C38.8169 60.6613 37.5 57.4819 37.5 54.1667H16.6666V20.8333H83.3333V54.1667H62.5C62.5 57.4819 61.183 60.6613 58.8388 63.0055C56.4946 65.3497 53.3152 66.6667 50 66.6667ZM66.6667 45.8333H54.1666V58.3333H45.8333V45.8333H33.3333L50 27.0833L66.6667 45.8333Z" fill="white"/>
</svg>
