<svg width="80" height="80" viewBox="0 0 80 80" fill="none" xmlns="http://www.w3.org/2000/svg">
<path d="M3.33333 53.3333H12.6C12.7892 53.3371 12.9716 53.4051 13.117 53.5263C13.2624 53.6475 13.3622 53.8145 13.4 54C13.5537 54.7529 13.9628 55.4296 14.5581 55.9155C15.1533 56.4015 15.8982 56.6668 16.6667 56.6667H17.5C17.721 56.6667 17.933 56.7544 18.0893 56.9107C18.2455 57.067 18.3333 57.279 18.3333 57.5V58.3333C18.3333 59.2174 18.6845 60.0652 19.3096 60.6903C19.9348 61.3155 20.7826 61.6667 21.6667 61.6667C22.5507 61.6667 23.3986 61.3155 24.0237 60.6903C24.6488 60.0652 25 59.2174 25 58.3333V57.5C25 57.279 25.0878 57.067 25.2441 56.9107C25.4004 56.7544 25.6123 56.6667 25.8333 56.6667H26.6667C27.5507 56.6667 28.3986 56.3155 29.0237 55.6903C29.6488 55.0652 30 54.2174 30 53.3333V46.6667C30 45.7826 29.6488 44.9348 29.0237 44.3096C28.3986 43.6845 27.5507 43.3333 26.6667 43.3333H16.6667C15.8868 43.3176 15.1262 43.5758 14.5171 44.0631C13.9081 44.5503 13.4892 45.2357 13.3333 46C13.2955 46.1854 13.1957 46.3525 13.0503 46.4737C12.9049 46.5948 12.7226 46.6629 12.5333 46.6667H3.33333C2.44928 46.6667 1.60143 47.0178 0.976311 47.643C0.35119 48.2681 0 49.1159 0 50C0 50.884 0.35119 51.7319 0.976311 52.357C1.60143 52.9821 2.44928 53.3333 3.33333 53.3333Z" fill="#7D5A50"/>
<path d="M73.3333 0H21.6667C18.5725 0 15.605 1.22916 13.4171 3.41709C11.2292 5.60501 10 8.57247 10 11.6667V30C10 30.8841 10.3512 31.7319 10.9763 32.357C11.6014 32.9821 12.4493 33.3333 13.3333 33.3333H15.8333C16.0543 33.3333 16.2663 33.4211 16.4226 33.5774C16.5789 33.7337 16.6667 33.9457 16.6667 34.1667V38.3333C16.6667 38.7754 16.8423 39.1993 17.1548 39.5118C17.4674 39.8244 17.8913 40 18.3333 40H25C25.442 40 25.8659 39.8244 26.1785 39.5118C26.4911 39.1993 26.6667 38.7754 26.6667 38.3333V34.1667C26.6667 33.9457 26.7545 33.7337 26.9107 33.5774C27.067 33.4211 27.279 33.3333 27.5 33.3333H33.3333C33.7754 33.3333 34.1993 33.5089 34.5118 33.8215C34.8244 34.134 35 34.558 35 35V65C35 65.442 34.8244 65.866 34.5118 66.1785C34.1993 66.4911 33.7754 66.6667 33.3333 66.6667H3.33333C2.44928 66.6667 1.60143 67.0179 0.976311 67.643C0.35119 68.2681 0 69.1159 0 70L0 76.6667C0 77.5507 0.35119 78.3986 0.976311 79.0237C1.60143 79.6488 2.44928 80 3.33333 80H76.6667C77.5507 80 78.3986 79.6488 79.0237 79.0237C79.6488 78.3986 80 77.5507 80 76.6667V6.66667C80 4.89856 79.2976 3.20286 78.0474 1.95262C76.7971 0.702379 75.1014 0 73.3333 0ZM23.3333 18.3333C22.3444 18.3333 21.3777 18.0401 20.5555 17.4907C19.7332 16.9413 19.0924 16.1604 18.7139 15.2467C18.3355 14.3331 18.2365 13.3278 18.4294 12.3579C18.6223 11.388 19.0985 10.4971 19.7978 9.7978C20.4971 9.09854 21.388 8.62233 22.3579 8.42941C23.3278 8.23648 24.3331 8.3355 25.2467 8.71394C26.1604 9.09237 26.9413 9.73324 27.4907 10.5555C28.0401 11.3777 28.3333 12.3444 28.3333 13.3333C28.3333 14.6594 27.8065 15.9312 26.8689 16.8689C25.9312 17.8065 24.6594 18.3333 23.3333 18.3333ZM72.5 30.8333H59.1667C58.5036 30.8333 57.8677 30.5699 57.3989 30.1011C56.9301 29.6323 56.6667 28.9964 56.6667 28.3333C56.6667 27.6703 56.9301 27.0344 57.3989 26.5656C57.8677 26.0967 58.5036 25.8333 59.1667 25.8333H72.5C73.163 25.8333 73.7989 26.0967 74.2678 26.5656C74.7366 27.0344 75 27.6703 75 28.3333C75 28.9964 74.7366 29.6323 74.2678 30.1011C73.7989 30.5699 73.163 30.8333 72.5 30.8333ZM72.5 20.8333H59.1667C58.5036 20.8333 57.8677 20.5699 57.3989 20.1011C56.9301 19.6323 56.6667 18.9964 56.6667 18.3333C56.6667 17.6703 56.9301 17.0344 57.3989 16.5656C57.8677 16.0967 58.5036 15.8333 59.1667 15.8333H72.5C73.163 15.8333 73.7989 16.0967 74.2678 16.5656C74.7366 17.0344 75 17.6703 75 18.3333C75 18.9964 74.7366 19.6323 74.2678 20.1011C73.7989 20.5699 73.163 20.8333 72.5 20.8333Z" fill="#7D5A50"/>
</svg>
