<svg width="100" height="100" viewBox="0 0 100 100" fill="none" xmlns="http://www.w3.org/2000/svg">
<path fill-rule="evenodd" clip-rule="evenodd" d="M25 8.33325C21.6848 8.33325 18.5054 9.65021 16.1612 11.9944C13.817 14.3386 12.5 17.518 12.5 20.8333V79.1666C12.5 82.4818 13.817 85.6612 16.1612 88.0054C18.5054 90.3496 21.6848 91.6666 25 91.6666H50C53.3152 91.6666 56.4946 90.3496 58.8388 88.0054C61.183 85.6612 62.5 82.4818 62.5 79.1666V20.8333C62.5 17.518 61.183 14.3386 58.8388 11.9944C56.4946 9.65021 53.3152 8.33325 50 8.33325H25ZM67.8875 30.3874C68.6689 29.6063 69.7285 29.1675 70.8333 29.1675C71.9382 29.1675 72.9978 29.6063 73.7792 30.3874L90.4458 47.0541C91.227 47.8355 91.6658 48.8951 91.6658 49.9999C91.6658 51.1048 91.227 52.1644 90.4458 52.9458L73.7792 69.6124C72.9933 70.3714 71.9408 70.7914 70.8483 70.7819C69.7558 70.7724 68.7108 70.3342 67.9383 69.5617C67.1657 68.7891 66.7275 67.7441 66.718 66.6516C66.7085 65.5591 67.1285 64.5066 67.8875 63.7208L77.4417 54.1666H41.6667C40.5616 54.1666 39.5018 53.7276 38.7204 52.9462C37.939 52.1648 37.5 51.105 37.5 49.9999C37.5 48.8949 37.939 47.835 38.7204 47.0536C39.5018 46.2722 40.5616 45.8333 41.6667 45.8333H77.4417L67.8875 36.2791C67.1064 35.4977 66.6676 34.4381 66.6676 33.3333C66.6676 32.2284 67.1064 31.1688 67.8875 30.3874Z" fill="#7D5A50"/>
</svg>
