<svg width="100" height="100" viewBox="0 0 100 100" fill="none" xmlns="http://www.w3.org/2000/svg">
<path d="M34.8 84.3417C36.6131 86.6344 38.9235 88.4851 41.5567 89.7541C44.1899 91.023 47.077 91.677 50 91.6667C52.923 91.677 55.8101 91.023 58.4433 89.7541C61.0765 88.4851 63.3869 86.6344 65.2 84.3417C55.1127 85.7069 44.8874 85.7069 34.8 84.3417ZM78.125 37.5V40.4334C78.125 43.9542 79.125 47.3959 81.0084 50.325L85.625 57.5042C89.8375 64.0625 86.6209 72.975 79.2917 75.0459C60.1405 80.4694 39.8596 80.4694 20.7083 75.0459C13.3792 72.975 10.1625 64.0625 14.375 57.5042L18.9917 50.325C20.8801 47.3717 21.8822 43.9388 21.8792 40.4334V37.5C21.8792 21.3917 34.4708 8.33337 50 8.33337C65.5292 8.33337 78.125 21.3917 78.125 37.5Z" fill="#7A5447"/>
</svg>
