<svg width="75" height="60" viewBox="0 0 75 60" fill="none" xmlns="http://www.w3.org/2000/svg">
<path d="M49.8917 30C47.9112 30 46.0479 28.9453 45.0401 27.2578L37.505 14.7656L29.9815 27.2578C28.962 28.957 27.0987 30.0117 25.1182 30.0117C24.5909 30.0117 24.0636 29.9414 23.5596 29.7891L7.50496 25.1953V46.0547C7.50496 47.7773 8.67684 49.2773 10.3409 49.6875L35.6768 56.0273C36.8721 56.3203 38.1261 56.3203 39.3096 56.0273L64.669 49.6875C66.3331 49.2656 67.505 47.7656 67.505 46.0547V25.1953L51.4503 29.7773C50.9464 29.9297 50.419 30 49.8917 30ZM74.8057 16.8516L68.7706 4.80469C68.4073 4.07812 67.6221 3.65625 66.8135 3.76172L37.505 7.5L48.2511 25.3242C48.6964 26.0625 49.587 26.4141 50.419 26.1797L73.6104 19.5586C74.7706 19.2187 75.3331 17.9297 74.8057 16.8516ZM6.23934 4.80469L0.204179 16.8516C-0.334884 17.9297 0.239335 19.2187 1.38777 19.5469L24.5792 26.168C25.4112 26.4023 26.3018 26.0508 26.7471 25.3125L37.505 7.5L8.18465 3.76172C7.37605 3.66797 6.60262 4.07812 6.23934 4.80469Z" fill="#943A3A" fill-opacity="0.47"/>
</svg>
