<?xml version="1.0" encoding="iso-8859-1"?>
<!-- Uploaded to: SVG Repo, www.svgrepo.com, Generator: SVG Repo Mixer Tools -->
<svg fill="#000000" version="1.1" id="Layer_1" xmlns="http://www.w3.org/2000/svg" xmlns:xlink="http://www.w3.org/1999/xlink" 
	 viewBox="0 0 512 512" xml:space="preserve">
<g>
	<g>
		<rect x="147.331" width="15.673" height="59.026"/>
	</g>
</g>
<g>
	<g>
		<rect x="167.967" width="15.673" height="59.026"/>
	</g>
</g>
<g>
	<g>
		<rect x="188.604" width="15.674" height="59.026"/>
	</g>
</g>
<g>
	<g>
		<path d="M209.241,0v64.446h-66.873V0h-15.673v512h15.673v-64.446h66.873V512h15.673V0H209.241z M209.241,431.88h-66.873V80.12
			h66.873V431.88z"/>
	</g>
</g>
<g>
	<g>
		<rect x="147.331" y="452.974" width="15.673" height="59.026"/>
	</g>
</g>
<g>
	<g>
		<rect x="167.967" y="452.974" width="15.673" height="59.026"/>
	</g>
</g>
<g>
	<g>
		<rect x="188.604" y="452.974" width="15.674" height="59.026"/>
	</g>
</g>
<g>
	<g>
		<rect x="307.723" width="15.673" height="59.026"/>
	</g>
</g>
<g>
	<g>
		<rect x="328.359" width="15.673" height="59.026"/>
	</g>
</g>
<g>
	<g>
		<rect x="348.996" width="15.673" height="59.026"/>
	</g>
</g>
<g>
	<g>
		<path d="M369.633,0v64.446h-66.873V0h-15.674v512h15.674v-64.446h66.873V512h15.673V0H369.633z M369.633,431.88h-66.873V80.12
			h66.873V431.88z"/>
	</g>
</g>
<g>
	<g>
		<rect x="307.723" y="452.974" width="15.673" height="59.026"/>
	</g>
</g>
<g>
	<g>
		<rect x="328.359" y="452.974" width="15.673" height="59.026"/>
	</g>
</g>
<g>
	<g>
		<rect x="348.996" y="452.974" width="15.673" height="59.026"/>
	</g>
</g>
</svg>