<svg width="100" height="100" viewBox="0 0 100 100" fill="none" xmlns="http://www.w3.org/2000/svg">
<path d="M50 37.5C46.6848 37.5 43.5054 38.817 41.1612 41.1612C38.817 43.5054 37.5 46.6848 37.5 50C37.5 53.3152 38.817 56.4946 41.1612 58.8388C43.5054 61.183 46.6848 62.5 50 62.5C53.3152 62.5 56.4946 61.183 58.8389 58.8388C61.1831 56.4946 62.5 53.3152 62.5 50C62.5 46.6848 61.1831 43.5054 58.8389 41.1612C56.4946 38.817 53.3152 37.5 50 37.5ZM50 70.8333C44.4747 70.8333 39.1756 68.6384 35.2686 64.7314C31.3616 60.8244 29.1667 55.5253 29.1667 50C29.1667 44.4747 31.3616 39.1756 35.2686 35.2686C39.1756 31.3616 44.4747 29.1667 50 29.1667C55.5254 29.1667 60.8244 31.3616 64.7314 35.2686C68.6384 39.1756 70.8334 44.4747 70.8334 50C70.8334 55.5253 68.6384 60.8244 64.7314 64.7314C60.8244 68.6384 55.5254 70.8333 50 70.8333ZM50 18.75C29.1667 18.75 11.375 31.7083 4.16669 50C11.375 68.2917 29.1667 81.25 50 81.25C70.8334 81.25 88.625 68.2917 95.8334 50C88.625 31.7083 70.8334 18.75 50 18.75Z" fill="#7D5A50"/>
</svg>
