<svg width="75" height="75" viewBox="0 0 75 75" fill="none" xmlns="http://www.w3.org/2000/svg">
<path d="M37.5 42.8906C36.9792 42.8906 36.4709 42.826 35.975 42.6969C35.4792 42.5677 34.9979 42.3719 34.5313 42.1094L8.12503 27.7344C7.55211 27.4219 7.14794 27.0313 6.91253 26.5625C6.67711 26.0938 6.56044 25.5729 6.56253 25C6.56461 24.4271 6.68232 23.9063 6.91565 23.4375C7.14899 22.9688 7.55211 22.5781 8.12503 22.2656L34.5313 7.89063C35 7.63021 35.4823 7.43438 35.9782 7.30313C36.474 7.17188 36.9813 7.10729 37.5 7.10938C38.0188 7.11146 38.5271 7.17709 39.025 7.30625C39.5229 7.43542 40.0042 7.63021 40.4688 7.89063L66.875 22.2656C67.4479 22.5781 67.8521 22.9688 68.0875 23.4375C68.3229 23.9063 68.4396 24.4271 68.4375 25C68.4354 25.5729 68.3188 26.0938 68.0875 26.5625C67.8563 27.0313 67.4521 27.4219 66.875 27.7344L40.4688 42.1094C40 42.3698 39.5188 42.5656 39.025 42.6969C38.5313 42.8281 38.0229 42.8927 37.5 42.8906ZM37.5 49.1406L62.0313 35.7813C62.1354 35.7292 62.6302 35.599 63.5157 35.3906C64.4011 35.3906 65.1438 35.6906 65.7438 36.2906C66.3438 36.8906 66.6427 37.6323 66.6407 38.5156C66.6407 39.0885 66.5104 39.6094 66.25 40.0781C65.9896 40.5469 65.5729 40.9375 65 41.25L40.4688 54.6094C40 54.8698 39.5188 55.0656 39.025 55.1969C38.5313 55.3281 38.0229 55.3927 37.5 55.3906C36.9771 55.3885 36.4688 55.324 35.975 55.1969C35.4813 55.0698 35 54.874 34.5313 54.6094L10 41.25C9.42711 40.9375 9.01044 40.5469 8.75003 40.0781C8.48961 39.6094 8.3594 39.0885 8.3594 38.5156C8.3594 37.6302 8.6594 36.8885 9.2594 36.2906C9.8594 35.6927 10.6011 35.3927 11.4844 35.3906C11.7448 35.3906 11.9927 35.4302 12.2282 35.5094C12.4636 35.5885 12.7104 35.6792 12.9688 35.7813L37.5 49.1406ZM37.5 61.6406L62.0313 48.2813C62.1354 48.2292 62.6302 48.099 63.5157 47.8906C64.4011 47.8906 65.1438 48.1906 65.7438 48.7906C66.3438 49.3906 66.6427 50.1323 66.6407 51.0156C66.6407 51.5885 66.5104 52.1094 66.25 52.5781C65.9896 53.0469 65.5729 53.4375 65 53.75L40.4688 67.1094C40 67.3698 39.5188 67.5656 39.025 67.6969C38.5313 67.8281 38.0229 67.8927 37.5 67.8906C36.9771 67.8885 36.4688 67.824 35.975 67.6969C35.4813 67.5698 35 67.374 34.5313 67.1094L10 53.75C9.42711 53.4375 9.01044 53.0469 8.75003 52.5781C8.48961 52.1094 8.3594 51.5885 8.3594 51.0156C8.3594 50.1302 8.6594 49.3885 9.2594 48.7906C9.8594 48.1927 10.6011 47.8927 11.4844 47.8906C11.7448 47.8906 11.9927 47.9302 12.2282 48.0094C12.4636 48.0885 12.7104 48.1792 12.9688 48.2813L37.5 61.6406Z" fill="#7A5447" fill-opacity="0.42"/>
</svg>
