<svg width="80" height="80" viewBox="0 0 80 80" fill="none" xmlns="http://www.w3.org/2000/svg">
<path d="M19.6125 24.9575L24.7 68.34C24.7 70.7825 31.55 72.765 40 72.765C48.45 72.765 55.3 70.7825 55.3 68.34L61.25 24.625C55.1125 27.185 44.22 27.46 40.005 27.46C35.98 27.46 25.8675 27.21 19.6175 24.96L19.6125 24.9575ZM60.325 14.3825L59.385 10.1825C59.385 8.5575 50.705 7.2375 40 7.2375C29.295 7.2375 20.615 8.5625 20.615 10.1875L19.675 14.38C17.89 15.09 16.875 15.9 16.875 16.7625V19.975C16.875 22.725 27.23 24.96 40 24.96C52.77 24.96 63.125 22.725 63.125 19.9725V16.76C63.125 15.8975 62.11 15.085 60.325 14.3775V14.3825Z" fill="#98B5A9"/>
</svg>
