<svg width="100" height="100" viewBox="0 0 100 100" fill="none" xmlns="http://www.w3.org/2000/svg">
<path d="M41.6667 66.6668H58.3334C60.625 66.6668 62.5 64.7918 62.5 62.5001V41.6668H69.125C72.8334 41.6668 74.7084 37.1668 72.0834 34.5418L52.9584 15.4168C52.5729 15.0305 52.115 14.724 51.611 14.515C51.1069 14.3059 50.5666 14.1982 50.0209 14.1982C49.4752 14.1982 48.9348 14.3059 48.4308 14.515C47.9267 14.724 47.4688 15.0305 47.0834 15.4168L27.9584 34.5418C25.3334 37.1668 27.1667 41.6668 30.875 41.6668H37.5V62.5001C37.5 64.7918 39.375 66.6668 41.6667 66.6668ZM25 75.0001H75C77.2917 75.0001 79.1667 76.8751 79.1667 79.1668C79.1667 81.4584 77.2917 83.3334 75 83.3334H25C22.7084 83.3334 20.8334 81.4584 20.8334 79.1668C20.8334 76.8751 22.7084 75.0001 25 75.0001Z" fill="white"/>
</svg>
